<svg width="114" height="39" viewBox="0 0 114 39" fill="none" xmlns="http://www.w3.org/2000/svg">
<path d="M50.014 24.7032H48.0406V17.0402H49.8958V18.2931C50.2898 17.7596 50.7354 17.3716 51.2326 17.1291C51.7358 16.8812 52.3269 16.7573 53.0059 16.7573C53.6788 16.7573 54.2366 16.8839 54.6791 17.1372C55.1217 17.3851 55.4582 17.765 55.6885 18.277C56.1432 17.7488 56.6252 17.3635 57.1344 17.121C57.6498 16.8785 58.2348 16.7573 58.8895 16.7573C59.4594 16.7573 59.9565 16.8516 60.3809 17.0402C60.8053 17.2234 61.1357 17.4929 61.3721 17.8485C61.4813 18.0156 61.5601 18.215 61.6086 18.4467C61.6631 18.6784 61.6904 19.0099 61.6904 19.441V24.7032H59.7171V20.7666C59.7171 19.7374 59.5928 19.061 59.3442 18.7377C59.1017 18.409 58.6652 18.2446 58.0347 18.2446C57.2587 18.2446 56.704 18.4656 56.3706 18.9075C56.0432 19.344 55.8795 20.1119 55.8795 21.2112V24.7032H53.888V20.7666C53.888 19.8182 53.7576 19.1607 53.4969 18.7943C53.2423 18.4278 52.7997 18.2446 52.1692 18.2446C51.7812 18.2446 51.4266 18.3228 51.1053 18.479C50.7839 18.6353 50.5293 18.8509 50.3414 19.1257C50.2201 19.3035 50.1353 19.5218 50.0868 19.7805C50.0383 20.0391 50.014 20.5161 50.014 21.2112V24.7032Z" fill="white"/>
<path d="M72.4484 24.7032H70.475V23.709C70.1234 24.1509 69.7112 24.4796 69.2383 24.6952C68.7715 24.9107 68.2349 25.0185 67.6287 25.0185C66.4101 25.0185 65.4492 24.6493 64.7459 23.9111C64.0488 23.1674 63.7002 22.1516 63.7002 20.8636C63.7002 19.6404 64.0578 18.6542 64.7732 17.9051C65.4886 17.1507 66.4222 16.7735 67.5741 16.7735C68.2774 16.7735 68.8776 16.9055 69.3747 17.1695C69.8779 17.4282 70.2447 17.8027 70.475 18.2931V17.0402H72.4484V24.7032ZM70.5296 20.8475C70.5296 20.0553 70.3204 19.4383 69.9021 18.9964C69.4899 18.5545 68.9109 18.3335 68.1652 18.3335C67.4195 18.3335 66.8315 18.5626 66.401 19.0206C65.9766 19.4733 65.7644 20.1038 65.7644 20.9121C65.7644 21.7259 65.9706 22.3537 66.3828 22.7956C66.7951 23.2375 67.3771 23.4584 68.1288 23.4584C68.8382 23.4584 69.4141 23.2186 69.8567 22.739C70.3053 22.2594 70.5296 21.6289 70.5296 20.8475Z" fill="white"/>
<path d="M81.3694 20.8475C81.3694 20.0553 81.1602 19.4383 80.7419 18.9964C80.3297 18.5545 79.7507 18.3335 79.005 18.3335C78.2593 18.3335 77.6713 18.5626 77.2408 19.0206C76.8164 19.4733 76.6042 20.1038 76.6042 20.9121C76.6042 21.7259 76.8104 22.3537 77.2226 22.7956C77.6349 23.2375 78.2169 23.4584 78.9686 23.4584C79.6779 23.4584 80.2539 23.2186 80.6965 22.739C81.1451 22.2594 81.3694 21.6289 81.3694 20.8475ZM83.2882 24.2263C83.2882 25.7244 82.9517 26.778 82.2788 27.3869C81.6058 28.0013 80.4721 28.3084 78.8777 28.3084C77.6894 28.3084 76.7407 28.0848 76.0313 27.6375C75.322 27.1956 74.9613 26.6055 74.9492 25.8672L77.068 25.8592C77.0983 26.1879 77.2711 26.4385 77.5864 26.6109C77.9016 26.7834 78.3442 26.8696 78.9141 26.8696C79.7568 26.8696 80.363 26.7052 80.7328 26.3765C81.1026 26.0478 81.2906 25.4981 81.2966 24.7275L81.3148 23.709C80.9632 24.1509 80.551 24.4796 80.0781 24.6952C79.6113 24.9107 79.0747 25.0185 78.4685 25.0185C77.2499 25.0185 76.289 24.6493 75.5857 23.9111C74.8886 23.1674 74.54 22.1516 74.54 20.8636C74.54 19.6404 74.8976 18.6542 75.613 17.9051C76.3284 17.1507 77.262 16.7735 78.4139 16.7735C79.1172 16.7735 79.7174 16.9055 80.2145 17.1695C80.7177 17.4282 81.0845 17.8027 81.3148 18.2931V17.0402H83.2882V24.2263Z" fill="white"/>
<path d="M94.2644 25.164L92.2729 21.1789C92.1213 20.8717 91.997 20.5996 91.9 20.3625C91.803 20.12 91.7151 19.8829 91.6363 19.6511C91.5029 20.0014 91.3847 20.3032 91.2816 20.5565C91.1786 20.8044 91.0967 20.9903 91.0361 21.1142L88.99 25.164L84.5249 17.0402H86.6256L88.5626 20.7343C88.6414 20.8906 88.7172 21.1061 88.7899 21.381C88.8687 21.6504 88.9354 21.9495 88.99 22.2782C88.9961 22.0842 89.0324 21.8821 89.0991 21.672C89.1658 21.4618 89.278 21.2031 89.4356 20.896L91.5453 16.7573H91.709L93.8552 20.896C93.9885 21.1546 94.0855 21.3944 94.1462 21.6154C94.2129 21.8363 94.2523 22.0573 94.2644 22.2782C94.319 21.9872 94.3887 21.7124 94.4735 21.4537C94.5584 21.1951 94.6554 20.9606 94.7645 20.7505L96.6651 17.0402H98.7476L94.2644 25.164Z" fill="white"/>
<path d="M108.096 24.7032H106.123V23.709C105.771 24.1509 105.359 24.4796 104.886 24.6952C104.419 24.9107 103.883 25.0185 103.276 25.0185C102.058 25.0185 101.097 24.6493 100.394 23.9111C99.6964 23.1674 99.3478 22.1516 99.3478 20.8636C99.3478 19.6404 99.7055 18.6542 100.421 17.9051C101.136 17.1507 102.07 16.7735 103.222 16.7735C103.925 16.7735 104.525 16.9055 105.022 17.1695C105.526 17.4282 105.892 17.8027 106.123 18.2931V17.0402H108.096V24.7032ZM106.177 20.8475C106.177 20.0553 105.968 19.4383 105.55 18.9964C105.138 18.5545 104.559 18.3335 103.813 18.3335C103.067 18.3335 102.479 18.5626 102.049 19.0206C101.624 19.4733 101.412 20.1038 101.412 20.9121C101.412 21.7259 101.618 22.3537 102.03 22.7956C102.443 23.2375 103.025 23.4584 103.776 23.4584C104.486 23.4584 105.062 23.2186 105.504 22.739C105.953 22.2594 106.177 21.6289 106.177 20.8475Z" fill="white"/>
<path d="M110.651 13.726C110.651 13.4296 110.773 13.1737 111.015 12.9581C111.264 12.7425 111.558 12.6348 111.897 12.6348C112.249 12.6348 112.54 12.7398 112.77 12.95C113.007 13.1548 113.125 13.4135 113.125 13.726C113.125 14.0386 113.007 14.3026 112.77 14.5182C112.534 14.7284 112.243 14.8334 111.897 14.8334C111.558 14.8334 111.264 14.7257 111.015 14.5101C110.773 14.2892 110.651 14.0278 110.651 13.726ZM110.915 24.7032V17.0402H112.888V24.7032H110.915Z" fill="white"/>
<path d="M14.0048 7.53564C14.0048 7.53564 8.50562 7.57111 8.00021 7.62386C7.02861 7.72275 4.87068 8.14577 3.98238 9.72864C2.77247 11.8853 5.05031 14.9406 5.05031 14.9406L7.9141 19.0105" stroke="#BFECFF" stroke-width="1.5" stroke-linecap="round"/>
<path d="M10.8302 30.8106C11.5435 30.4143 11.7603 29.579 11.3145 28.945C10.8687 28.3109 9.929 28.1181 9.21567 28.5144L8.35445 28.9929C7.64112 29.3892 7.42428 30.2244 7.8701 30.8585C8.31593 31.4926 9.25561 31.6853 9.96894 31.289L10.8302 30.8106Z" fill="white"/>
<path d="M17.216 20.1675C17.9293 19.7712 18.1462 18.936 17.7004 18.3019C17.2545 17.6678 16.3149 17.4751 15.6015 17.8714L7.27703 22.4961C6.5637 22.8924 6.34685 23.7276 6.79268 24.3617C7.23851 24.9958 8.17819 25.1885 8.89151 24.7922L17.216 20.1675Z" fill="white"/>
<path d="M20.2046 25.6036C20.9179 25.2073 21.1347 24.372 20.6889 23.7379C20.2431 23.1039 19.3034 22.9111 18.5901 23.3074L13.8333 25.95C13.12 26.3463 12.9032 27.1816 13.349 27.8156C13.7948 28.4497 14.7345 28.6425 15.4478 28.2462L20.2046 25.6036Z" fill="white"/>
<path d="M37.74 18.7022C38.2949 18.394 38.4635 17.7443 38.1168 17.2511C37.77 16.758 37.0391 16.608 36.4843 16.9163C35.9295 17.2245 35.7608 17.8742 36.1076 18.3673C36.4543 18.8605 37.1852 19.0104 37.74 18.7022Z" fill="white"/>
<path fill-rule="evenodd" clip-rule="evenodd" d="M30.8513 22.6473C30.0066 24.1668 29.0387 25.9117 28.1707 27.4766C26.9542 29.6696 25.9337 31.5093 25.7228 31.8805C24.9168 33.3044 24.1324 33.7847 23.1859 33.7017C22.4528 33.6429 21.4854 32.8235 21.4212 31.1918C21.357 29.5602 21.1365 25.0913 17.2738 27.2367C17.2075 27.1424 17.1751 26.9965 17.14 26.8387C17.0988 26.6528 17.0538 26.4505 16.9456 26.2965C16.0446 25.015 12.3375 19.6891 12.6064 19.5396C12.8754 19.3902 14.1179 18.3656 13.3381 17.1882C12.6669 16.1748 11.5685 15.5953 10.3804 14.9684C10.1882 14.8671 9.99374 14.7645 9.79834 14.6586C7.99495 13.6302 7.57686 12.8345 7.99871 11.7692C8.53383 10.7654 10.2977 10.7684 11.02 10.7892C11.7273 10.8102 17.1269 10.8351 22.5361 10.8427L19.012 19.4349C18.8277 19.9392 18.8472 20.4848 19.0672 20.9776C19.4619 21.4083 20.0271 21.6883 20.6468 21.76L30.8491 22.6454C30.8499 22.6461 30.8506 22.6467 30.8513 22.6473ZM26.62 10.8449C26.4636 10.8725 26.312 10.922 26.171 10.9923C25.8663 11.1443 25.6294 11.3845 25.4999 11.6729C24.2594 14.1887 23.9127 14.9899 23.4194 16.13C23.3082 16.3869 23.1896 16.6611 23.0516 16.976C23.0321 17.0265 23.008 17.0863 22.981 17.1534C22.7689 17.6802 22.3773 18.6525 22.6487 19.0385C22.8819 19.3701 23.4054 19.4175 24.4009 19.5076C24.5445 19.5206 24.6979 19.5345 24.8617 19.5502C27.5832 19.8093 31.4288 20.1052 31.4288 20.1052C31.7707 20.0761 32.0954 19.9583 32.3626 19.7664C32.4254 19.7213 32.4843 19.6726 32.5392 19.6207C32.6394 19.4422 32.7274 19.2859 32.8015 19.1549L35.381 14.591C35.3896 14.5758 35.3986 14.5599 35.408 14.5434C35.9341 13.6151 37.5462 10.7707 32.731 10.8221C31.3528 10.8369 29.1303 10.8436 26.62 10.8449Z" fill="white"/>
<path d="M39.7765 14.1406C39.7765 14.1406 41.55 11.671 40.1349 9.61551C38.7198 7.55998 34.6871 7.52905 34.6871 7.52905L19.6931 7.60056" stroke="#FE60B7" stroke-width="1.5" stroke-linecap="round"/>
<path d="M16.3136 31.1629C16.3136 31.1629 19.2721 35.3965 19.4183 35.579C19.8237 36.0878 21.5305 37.9862 23.8168 37.7919C26.5155 37.5621 28.225 34.2267 28.225 34.2267L35.3252 21.5907" stroke="#A072FD" stroke-width="1.5" stroke-linecap="round"/>
</svg>
