<svg width="66" height="66" viewBox="0 0 66 66" fill="none" xmlns="http://www.w3.org/2000/svg">
<mask id="path-1-outside-1_1077_15916" maskUnits="userSpaceOnUse" x="0" y="0" width="66" height="66" fill="black">
<rect fill="white" width="66" height="66"/>
<path fill-rule="evenodd" clip-rule="evenodd" d="M63.5 33C63.5 49.8447 49.8447 63.5 33 63.5C16.1553 63.5 2.5 49.8447 2.5 33C2.5 16.1553 16.1553 2.5 33 2.5C49.8447 2.5 63.5 16.1553 63.5 33ZM65 33C65 50.6731 50.6731 65 33 65C15.3269 65 1 50.6731 1 33C1 15.3269 15.3269 1 33 1C50.6731 1 65 15.3269 65 33ZM28.7609 43.1738L49.5608 22.7144L48.4388 21.5737L28.2045 41.4767L19.1656 32.4378L18.0342 33.5691L27.6342 43.1691C27.9448 43.4797 28.4477 43.4818 28.7609 43.1738Z"/>
</mask>
<path fill-rule="evenodd" clip-rule="evenodd" d="M63.5 33C63.5 49.8447 49.8447 63.5 33 63.5C16.1553 63.5 2.5 49.8447 2.5 33C2.5 16.1553 16.1553 2.5 33 2.5C49.8447 2.5 63.5 16.1553 63.5 33ZM65 33C65 50.6731 50.6731 65 33 65C15.3269 65 1 50.6731 1 33C1 15.3269 15.3269 1 33 1C50.6731 1 65 15.3269 65 33ZM28.7609 43.1738L49.5608 22.7144L48.4388 21.5737L28.2045 41.4767L19.1656 32.4378L18.0342 33.5691L27.6342 43.1691C27.9448 43.4797 28.4477 43.4818 28.7609 43.1738Z" fill="#c2ab81"/>
<path d="M49.5608 22.7144L50.2621 23.4273C50.4511 23.2413 50.5586 22.9879 50.5608 22.7227C50.563 22.4574 50.4597 22.2022 50.2737 22.0132L49.5608 22.7144ZM28.7609 43.1738L29.4621 43.8867H29.4621L28.7609 43.1738ZM48.4388 21.5737L49.1517 20.8725C48.7645 20.4788 48.1313 20.4735 47.7376 20.8608L48.4388 21.5737ZM28.2045 41.4767L27.4974 42.1838C27.8857 42.5721 28.5143 42.5747 28.9058 42.1896L28.2045 41.4767ZM19.1656 32.4378L19.8727 31.7306C19.6851 31.5431 19.4308 31.4378 19.1656 31.4378C18.9003 31.4378 18.646 31.5431 18.4584 31.7306L19.1656 32.4378ZM18.0342 33.5691L17.3271 32.862C16.9365 33.2525 16.9365 33.8857 17.3271 34.2762L18.0342 33.5691ZM27.6342 43.1691L26.9271 43.8762L27.6342 43.1691ZM33 64.5C50.397 64.5 64.5 50.397 64.5 33H62.5C62.5 49.2924 49.2924 62.5 33 62.5V64.5ZM1.5 33C1.5 50.397 15.603 64.5 33 64.5V62.5C16.7076 62.5 3.5 49.2924 3.5 33H1.5ZM33 1.5C15.603 1.5 1.5 15.603 1.5 33H3.5C3.5 16.7076 16.7076 3.5 33 3.5V1.5ZM64.5 33C64.5 15.603 50.397 1.5 33 1.5V3.5C49.2924 3.5 62.5 16.7076 62.5 33H64.5ZM33 66C51.2254 66 66 51.2254 66 33H64C64 50.1208 50.1208 64 33 64V66ZM0 33C0 51.2254 14.7746 66 33 66V64C15.8792 64 2 50.1208 2 33H0ZM33 0C14.7746 0 0 14.7746 0 33H2C2 15.8792 15.8792 2 33 2V0ZM66 33C66 14.7746 51.2254 0 33 0V2C50.1208 2 64 15.8792 64 33H66ZM48.8596 22.0015L28.0596 42.4609L29.4621 43.8867L50.2621 23.4273L48.8596 22.0015ZM47.7259 22.275L48.8479 23.4156L50.2737 22.0132L49.1517 20.8725L47.7259 22.275ZM28.9058 42.1896L49.1401 22.2866L47.7376 20.8608L27.5033 40.7638L28.9058 42.1896ZM18.4584 33.1449L27.4974 42.1838L28.9116 40.7696L19.8727 31.7306L18.4584 33.1449ZM18.7413 34.2762L19.8727 33.1449L18.4584 31.7306L17.3271 32.862L18.7413 34.2762ZM28.3413 42.462L18.7413 32.862L17.3271 34.2762L26.9271 43.8762L28.3413 42.462ZM28.0596 42.4609C28.1379 42.3839 28.2636 42.3844 28.3413 42.462L26.9271 43.8762C27.6259 44.5751 28.7575 44.5797 29.4621 43.8867L28.0596 42.4609Z" fill="#c2ab81" mask="url(#path-1-outside-1_1077_15916)"/>
</svg>
