<?xml version="1.0" encoding="utf-8"?><svg xmlns="http://www.w3.org/2000/svg" xmlns:xlink="http://www.w3.org/1999/xlink"><symbol viewBox="0 0 20 20" id="modal-close" xmlns="http://www.w3.org/2000/svg"><path d="M18.293.293a1 1 0 111.414 1.414L11.414 10l8.293 8.293a1 1 0 01-1.414 1.414L10 11.414l-8.293 8.293a1 1 0 01-1.414-1.414L8.586 10 .293 1.707A1 1 0 011.707.293L10 8.586 18.293.293z"/></symbol><symbol viewBox="0 0 32 32" id="phone" xmlns="http://www.w3.org/2000/svg"><path d="M19.334 20.214l1.722-1.723a1.683 1.683 0 011.8-.37l2.098.84A1.677 1.677 0 0126 20.498v3.845a1.67 1.67 0 01-1.753 1.654C9.54 25.083 6.571 12.622 6.01 7.854A1.67 1.67 0 017.68 6h3.713a1.66 1.66 0 011.538 1.046l.838 2.1a1.663 1.663 0 01-.362 1.8l-1.722 1.723s.992 6.714 7.65 7.545z"/></symbol></svg>